<svg xmlns="http://www.w3.org/2000/svg" viewBox="0 0 84.74 77.57"><defs><style>.cls-1{fill:none;}.cls-1,.cls-2{stroke:#241f20;stroke-miterlimit:10;stroke-width:3px;}.cls-2{fill:#fff;}.cls-3{fill:#241f20;}</style></defs><g id="Layer_2" data-name="Layer 2"><g id="Layer_1-2" data-name="Layer 1"><rect class="cls-1" x="1.5" y="1.5" width="81.4" height="74.57" rx="14.72"/><rect class="cls-1" x="21.65" y="8.99" width="61.58" height="59.59" rx="11.22"/><line class="cls-2" x1="24.19" y1="13.11" x2="7.03" y2="4.73"/><line class="cls-2" x1="24.19" y1="64.39" x2="7.03" y2="72.77"/><path class="cls-3" d="M72,9l1.66-7L78,5.24l3,3.68,1.61,4.19.33,3.11S74.85,9,72,9Z"/><path class="cls-3" d="M72,68.71l1.66,7L78,72.45l3-3.67,1.61-4.19.33-3.11S74.85,68.71,72,68.71Z"/><path class="cls-3" d="M30.08,31.19h6.25V43.67L48.07,31.19h8.2L43.8,43.64,56.91,61.48H48.75L39.38,48.25l-3.05,3.09V61.48H30.08Z"/></g></g></svg>