<?xml version="1.0" encoding="utf-8"?>
<!-- Generator: Adobe Illustrator 25.2.1, SVG Export Plug-In . SVG Version: 6.00 Build 0)  -->
<svg version="1.1" id="Layer_1" xmlns="http://www.w3.org/2000/svg" xmlns:xlink="http://www.w3.org/1999/xlink" x="0px" y="0px"
	 viewBox="0 0 84.7 77.6" style="enable-background:new 0 0 84.7 77.6;" xml:space="preserve">
<style type="text/css">
	.st0{fill:#FFFFFF;}
	.st1{fill:none;stroke:#241F20;stroke-width:3;stroke-miterlimit:10;}
	.st2{fill:#241F20;}
</style>
<g>
	<path class="st0" d="M16.2,1.5h52c8.1,0,14.7,6.6,14.7,14.7v45.1c0,8.1-6.6,14.7-14.7,14.7h-52c-8.1,0-14.7-6.6-14.7-14.7V16.2
		C1.5,8.1,8.1,1.5,16.2,1.5z"/>
	<path class="st1" d="M16.2,1.5h52c8.1,0,14.7,6.6,14.7,14.7v45.1c0,8.1-6.6,14.7-14.7,14.7h-52c-8.1,0-14.7-6.6-14.7-14.7V16.2
		C1.5,8.1,8.1,1.5,16.2,1.5z"/>
	<path class="st0" d="M32.9,9H72c6.2,0,11.2,5,11.2,11.2v37.1c0,6.2-5,11.2-11.2,11.2H32.9c-6.2,0-11.2-5-11.2-11.2V20.2
		C21.6,14,26.7,9,32.9,9z"/>
	<path class="st1" d="M32.9,9H72c6.2,0,11.2,5,11.2,11.2v37.1c0,6.2-5,11.2-11.2,11.2H32.9c-6.2,0-11.2-5-11.2-11.2V20.2
		C21.6,14,26.7,9,32.9,9z"/>
	<line class="st1" x1="24.2" y1="13.1" x2="7" y2="4.7"/>
	<line class="st1" x1="24.2" y1="64.4" x2="7" y2="72.8"/>
	<path class="st2" d="M72,9l1.7-7L78,5.2l3,3.7l1.6,4.2l0.3,3.1C82.9,16.2,74.8,9,72,9z"/>
	<path class="st2" d="M72,68.7l1.7,7l4.3-3.3l3-3.7l1.6-4.2l0.3-3.1C82.9,61.5,74.8,68.7,72,68.7z"/>
	<polygon class="st2" points="30.1,31.2 36.3,31.2 36.3,43.7 48.1,31.2 56.3,31.2 43.8,43.6 56.9,61.5 48.8,61.5 39.4,48.3 
		36.3,51.3 36.3,61.5 30.1,61.5 	"/>
</g>
</svg>
